#!OML:ASF F:\VICON\USERDATA\INSTALL\Justin_Nancy\Justin_Nancy.ASF
:FULLY-SPECIFIED
:DEGREES
48
root 9.27744 17.3043 -14.722 -0.8939 -3.85657 6.51999
lowerback 5.85986 -0.827632 -8.0358
upperback -0.031065 -1.62022 0.971706
thorax -3.07687 -0.677114 5.67013
lowerneck -15.984 -4.38084 -9.98118
upperneck 23.0743 -5.15698 6.50104
head 10.4711 -2.50453 3.27963
rclavicle -1.13804e-014 7.15625e-015
rhumerus -35.5914 -15.7266 -75.6762
rradius 28.5611
rwrist 11.4958
rhand -14.7224 8.70363
rfingers 7.12502
rthumb 11.4325 -20.9647
lclavicle -1.13804e-014 7.15625e-015
lhumerus -29.8347 13.0556 82.5951
lradius 23.347
lwrist -11.6662
lhand -13.863 25.6799
lfingers 7.12502
lthumb 12.2612 55.3005
rfemur -30.6325 -5.67003 17.3072
rtibia 62.7553
rfoot -9.27307 -7.29108
rtoes -1.157
lfemur -7.23724 0.962203 -29.0096
ltibia 29.8881
lfoot -17.5022 3.06964
ltoes 0.177925
49
root 9.23652 17.297 -14.4966 -0.73842 -3.25582 7.015
lowerback 6.05072 -1.00452 -8.45834
upperback -0.138541 -1.91066 0.863694
thorax -3.24255 -0.804594 5.82557
lowerneck -16.1525 -4.44431 -9.93013
upperneck 23.0141 -5.21144 6.39124
head 10.4825 -2.53386 3.22032
rclavicle -3.39922e-014 -1.19271e-014
rhumerus -36.4011 -16.0065 -75.2053
rradius 28.419
rwrist 11.5389
rhand -14.2756 9.39931
rfingers 7.12502
rthumb 11.8634 -20.2446
lclavicle -3.39922e-014 -1.19271e-014
lhumerus -29.3101 11.4752 83.1434
lradius 24.2975
lwrist -10.2204
lhand -13.893 25.5852
lfingers 7.12502
lthumb 12.2323 55.2075
rfemur -31.4699 -6.17539 16.8246
rtibia 60.5764
rfoot -9.0837 -8.0216
rtoes 0.110666
lfemur -6.21514 0.450809 -29.571
ltibia 29.2526
lfoot -17.5318 3.85553
ltoes -0.225172
50
root 9.19022 17.2955 -14.2731 -0.518693 -2.85018 7.1077
lowerback 6.19962 -1.16181 -8.55487
upperback -0.248583 -2.14478 0.895132
thorax -3.39959 -0.908061 5.93911
lowerneck -16.3436 -4.42106 -9.98578
upperneck 22.9708 -5.14502 6.40783
head 10.4994 -2.50234 3.24266
rclavicle 6.95746e-016 7.15625e-015
rhumerus -37.1102 -16.1557 -74.8167
rradius 28.2795
rwrist 11.7198
rhand -13.9714 9.67215
rfingers 7.12502
rthumb 12.1567 -19.9546
lclavicle 6.95746e-016 7.15625e-015
lhumerus -28.7904 10.2678 83.5313
lradius 25.2591
lwrist -9.07953
lhand -13.4895 26.7736
lfingers 7.12502
lthumb 12.6213 56.3723
rfemur -32.2186 -6.34542 16.8317
rtibia 58.1167
rfoot -9.2333 -8.89819
rtoes 0.952293
lfemur -5.12685 0.348126 -29.6095
ltibia 28.6233
lfoot -18.4202 3.79262
ltoes 0.162518
51
root 9.14175 17.2952 -14.0571 -0.240951 -2.82331 7.06175
lowerback 6.12378 -1.19009 -8.57235
upperback -0.287393 -2.17528 0.97861
thorax -3.38878 -0.921509 6.03776
lowerneck -16.167 -4.40105 -10.1145
upperneck 22.6115 -5.08911 6.43437
head 10.3347 -2.48436 3.27815
rclavicle -1.76421e-014 6.36111e-015
rhumerus -37.4384 -16.469 -74.4264
rradius 27.8204
rwrist 12.0315
rhand -13.8957 9.43757
rfingers 7.12502
rthumb 12.2297 -20.1849
lclavicle -1.76421e-014 6.36111e-015
lhumerus -28.1077 9.1895 83.8986
lradius 26.2667
lwrist -8.16128
lhand -13.4701 27.1308
lfingers 7.12502
lthumb 12.64 56.7283
rfemur -33.0284 -6.04721 17.0295
rtibia 55.4208
rfoot -9.001 -9.89744
rtoes 2.55616
lfemur -4.02799 0.533901 -29.4965
ltibia 27.9802
lfoot -19.2469 3.92015
ltoes 0.789248
52
root 9.09807 17.2978 -13.8451 -0.0131823 -3.07627 7.10443
lowerback 6.06461 -1.09562 -8.5966
upperback -0.263784 -2.0441 0.991994
thorax -3.35123 -0.858308 6.05299
lowerneck -16.2166 -4.46157 -10.1796
upperneck 22.3809 -5.15726 6.50155
head 10.2712 -2.51008 3.29932
rclavicle 3.60794e-014 -6.36111e-015
rhumerus -37.7257 -16.9501 -73.993
rradius 27.309
rwrist 12.3505
rhand -14.121 9.25604
rfingers 7.12502
rthumb 12.0124 -20.3792
lclavicle 3.60794e-014 -6.36111e-015
lhumerus -27.4458 8.04687 84.2079
lradius 27.3981
lwrist -7.29884
lhand -13.7324 22.8803
lfingers 7.12502
lthumb 12.3871 52.4933
rfemur -33.7949 -5.60503 17.0784
rtibia 52.6076
rfoot -7.52613 -10.5226
rtoes 0.202244
lfemur -2.95166 0.818197 -29.5491
ltibia 27.2709
lfoot -19.5625 4.43243
ltoes 0.506006
53
root 9.05496 17.2859 -13.6269 0.187369 -2.99655 7.30309
lowerback 6.32469 -1.12921 -8.72735
upperback -0.406327 -2.12993 0.9793
thorax -3.62982 -0.880203 6.1332
lowerneck -16.612 -4.43965 -10.2635
upperneck 22.5691 -5.09233 6.59156
head 10.4134 -2.47155 3.35441
rclavicle 3.04141e-014 -9.54166e-015
rhumerus -38.2972 -17.2405 -73.4676
rradius 26.7921
rwrist 12.4589
rhand -14.5378 9.30536
rfingers 7.12502
rthumb 11.6105 -20.353
lclavicle 3.04141e-014 -9.54166e-015
lhumerus -27.0369 6.95504 84.4363
lradius 28.4602
lwrist -6.42593
lhand -13.7475 25.7761
lfingers 7.12502
lthumb 12.3726 55.39
rfemur -34.4103 -5.6113 16.9234
rtibia 49.7572
rfoot -6.5433 -11.0713
rtoes 0.57594
lfemur -1.945 0.805731 -29.7658
ltibia 26.436
lfoot -19.5743 4.92693
ltoes -0.00340986
54
root 9.00936 17.2476 -13.401 0.409705 -2.66098 7.84702
lowerback 6.58888 -1.25633 -9.16496
upperback -0.631655 -2.37509 0.85107
thorax -3.965 -0.969292 6.28117
lowerneck -16.86 -4.34541 -10.3064
upperneck 22.7814 -4.94088 6.63311
head 10.5255 -2.39872 3.40038
rclavicle -2.40032e-014 -1.74931e-014
rhumerus -38.999 -17.5988 -72.8728
rradius 26.3452
rwrist 12.6579
rhand -14.5345 9.48542
rfingers 7.12502
rthumb 11.6137 -20.1727
lclavicle -2.40032e-014 -1.74931e-014
lhumerus -26.6689 6.20759 84.4721
lradius 29.3023
lwrist -6.02544
lhand -14.2725 26.6715
lfingers 7.12502
lthumb 11.8664 56.3152
rfemur -35.0396 -5.93614 16.3911
rtibia 46.8885
rfoot -5.5991 -11.5925
rtoes 2.35414
lfemur -1.00106 0.600833 -30.3004
ltibia 25.4214
lfoot -19.4878 5.33061
ltoes 1.08451
55
root 8.95943 17.2156 -13.1714 0.56902 -2.52616 8.17042
lowerback 6.53108 -1.34298 -9.46703
upperback -0.634532 -2.51099 0.798341
thorax -3.9026 -1.03386 6.40509
lowerneck -16.9404 -4.27558 -10.1538
upperneck 22.5472 -4.80994 6.42064
head 10.4331 -2.34602 3.31196
rclavicle -2.94698e-014 -3.02153e-014
rhumerus -39.3263 -18.2043 -72.2806
rradius 25.7876
rwrist 13.1821
rhand -14.9054 9.46563
rfingers 7.12502
rthumb 11.256 -20.2124
lclavicle -2.94698e-014 -3.02153e-014
lhumerus -26.0155 5.65028 84.471
lradius 30.1003
lwrist -5.7061
lhand -14.4705 27.4402
lfingers 7.12502
lthumb 11.6754 57.0949
rfemur -35.5144 -5.99509 16.0947
rtibia 43.8989
rfoot -4.29869 -12.1192
rtoes 3.95472
lfemur 0.212097 0.603983 -30.5693
ltibia 24.1612
lfoot -19.3038 5.77057
ltoes 1.26133
56
root 8.91039 17.1935 -12.9464 0.759243 -2.57465 8.32603
lowerback 6.39527 -1.37096 -9.67592
upperback -0.615014 -2.54708 0.852524
thorax -3.7883 -1.05368 6.57756
lowerneck -16.8951 -4.25398 -10.2412
upperneck 22.2563 -4.73924 6.39444
head 10.3144 -2.3215 3.32297
rclavicle -2.75814e-014 -7.95139e-016
rhumerus -39.5888 -18.9784 -71.4949
rradius 25.1586
rwrist 13.9305
rhand -15.4182 9.09672
rfingers 7.12502
rthumb 10.7614 -20.6076
lclavicle -2.75814e-014 -7.95139e-016
lhumerus -25.505 4.85781 84.5705
lradius 31.1151
lwrist -5.12169
lhand -14.8029 26.4376
lfingers 7.12502
lthumb 11.3548 56.1102
rfemur -35.9114 -5.82347 15.9883
rtibia 40.7989
rfoot -2.73199 -12.7516
rtoes 5.74986
lfemur 1.60097 0.645378 -30.6774
ltibia 22.7675
lfoot -19.1617 6.14112
ltoes 0.408521
57
root 8.86179 17.1813 -12.7271 1.04076 -2.54751 8.59809
lowerback 6.2914 -1.33995 -9.94736
upperback -0.643628 -2.51741 0.839909
thorax -3.75575 -1.03404 6.71192
lowerneck -16.869 -4.30134 -10.3332
upperneck 22.067 -4.78463 6.43632
head 10.2494 -2.34338 3.34401
rclavicle 2.18663e-015 -2.8625e-014
rhumerus -39.9393 -19.6599 -70.7803
rradius 24.6806
rwrist 14.2291
rhand -15.6224 8.70854
rfingers 7.12502
rthumb 10.5644 -21.0059
lclavicle 2.18663e-015 -2.8625e-014
lhumerus -25.0585 4.06467 84.6797
lradius 32.2367
lwrist -4.62875
lhand -15.5289 23.007
lfingers 7.12502
lthumb 10.6546 52.7169
rfemur -36.2473 -5.67757 15.7539
rtibia 37.568
rfoot -1.43263 -13.451
rtoes 6.7676
lfemur 2.92895 0.650215 -30.8471
ltibia 21.4063
lfoot -19.1313 6.06167
ltoes 1.17297
58
root 8.8091 17.1737 -12.5 1.41181 -2.38152 8.73777
lowerback 6.07226 -1.40554 -10.0664
upperback -0.713821 -2.59217 0.863384
thorax -3.68639 -1.06972 6.80233
lowerneck -16.8129 -4.31178 -10.4097
upperneck 21.8486 -4.7636 6.39591
head 10.1597 -2.34302 3.34216
rclavicle -1.80397e-014 -1.35174e-014
rhumerus -40.2272 -20.3299 -70.0457
rradius 24.1428
rwrist 14.6979
rhand -15.5911 8.79721
rfingers 7.12502
rthumb 10.5946 -20.9157
lclavicle -1.80397e-014 -1.35174e-014
lhumerus -24.5663 3.47873 84.674
lradius 33.2236
lwrist -4.1768
lhand -15.5208 25.1435
lfingers 7.12502
lthumb 10.6624 54.853
rfemur -36.4737 -5.53338 15.6537
rtibia 34.3072
rfoot -0.70891 -14.5734
rtoes 7.43334
lfemur 4.24985 0.678515 -30.7775
ltibia 20.0074
lfoot -19.0811 5.81362
ltoes 1.3833
59
root 8.75332 17.1575 -12.2692 1.83337 -2.10334 8.87273
lowerback 5.95832 -1.56884 -10.1864
upperback -0.950002 -2.81703 0.904743
thorax -3.82224 -1.16165 6.93223
lowerneck -16.6161 -4.28072 -10.406
upperneck 21.7809 -4.69173 6.20419
head 10.0872 -2.33419 3.28348
rclavicle 4.35338e-014 4.45278e-014
rhumerus -40.753 -20.9132 -69.1882
rradius 23.5905
rwrist 15.2085
rhand -15.7449 8.64707
rfingers 7.12502
rthumb 10.4463 -21.0734
lclavicle 4.35338e-014 4.45278e-014
lhumerus -24.2194 3.19305 84.5579
lradius 33.9096
lwrist -4.07756
lhand -15.5334 25.9416
lfingers 7.12502
lthumb 10.6503 55.6517
rfemur -36.6672 -5.56236 15.5961
rtibia 31.0448
rfoot -0.478962 -15.6386
rtoes 6.88379
lfemur 5.36737 0.822038 -30.5896
ltibia 18.6302
lfoot -18.9327 5.31334
ltoes -1.38116
60
root 8.6973 17.1259 -12.0362 2.15077 -2.0312 9.09149
lowerback 5.97414 -1.64823 -10.309
upperback -1.17474 -2.94838 0.854392
thorax -4.0417 -1.20308 6.96492
lowerneck -16.6712 -4.3007 -10.4356
upperneck 21.999 -4.69601 6.12935
head 10.1757 -2.34916 3.26354
rclavicle 5.49143e-014 2.54444e-014
rhumerus -41.442 -22.1278 -67.9911
rradius 22.9263
rwrist 16.2824
rhand -15.7676 8.80616
rfingers 7.12502
rthumb 10.4244 -20.9154
lclavicle 5.49143e-014 2.54444e-014
lhumerus -23.8205 2.73565 84.3655
lradius 34.4521
lwrist -3.80786
lhand -15.6756 25.5725
lfingers 7.12502
lthumb 10.5131 55.2896
rfemur -36.6854 -5.41217 15.4397
rtibia 27.7323
rfoot -0.850987 -16.5123
rtoes 5.76395
lfemur 6.34151 0.790351 -30.562
ltibia 17.4276
lfoot -18.8316 4.96923
ltoes -7.00386
